{
  "accessors": [
    {
      "bufferView": 2,
      "componentType": 5126,
      "count": 1660,
      "max": [
        4.8827729225158691,
        4.6831545829772949,
        3.9973204135894775
      ],
      "min": [
        -4.931279182434082,
        -4.6789121627807617,
        -3.997321605682373
      ],
      "type": "VEC3"
    },
    {
      "bufferView": 2,
      "byteOffset": 19920,
      "componentType": 5126,
      "count": 1660,
      "max": [
        0.9999995231628418,
        0.99654299020767212,
        1
      ],
      "min": [
        -0.99999904632568359,
        -0.99654316902160645,
        -1
      ],
      "type": "VEC3"
    },
    {
      "bufferView": 3,
      "componentType": 5126,
      "count": 1660,
      "max": [
        1,
        1,
        0.99752146005630493,
        1
      ],
      "min": [
        -1,
        -1,
        -0.95446205139160156,
        -1
      ],
      "type": "VEC4"
    },
    {
      "bufferView": 1,
      "componentType": 5126,
      "count": 1660,
      "max": [
        0.99641269445419312,
        0.99634438753128052
      ],
      "min": [
        0.0032933205366134644,
        0.0092454086989164352
      ],
      "type": "VEC2"
    },
    {
      "bufferView": 1,
      "byteOffset": 13280,
      "componentType": 5126,
      "count": 1660,
      "max": [
        0.99641269445419312,
        0.99634438753128052
      ],
      "min": [
        0.0032933205366134644,
        0.0092454086989164352
      ],
      "type": "VEC2"
    },
    {
      "bufferView": 1,
      "byteOffset": 26560,
      "componentType": 5126,
      "count": 1660,
      "max": [
        0.99641269445419312,
        0.99634438753128052
      ],
      "min": [
        0.0032933205366134644,
        0.0092454086989164352
      ],
      "type": "VEC2"
    },
    {
      "bufferView": 0,
      "componentType": 5125,
      "count": 8208,
      "max": [
        1659
      ],
      "min": [
        0
      ],
      "type": "SCALAR"
    }
  ],
  "asset": {
    "extras": {
      "author": "plaggy (https://sketchfab.com/plaggy)",
      "license": "CC-BY-4.0 (http://creativecommons.org/licenses/by/4.0/)",
      "source": "https://sketchfab.com/3d-models/cc0-bucket-3-cb484683659d465796ed5af8664cf58f",
      "title": "CC0 - Bucket 3"
    },
    "generator": "Sketchfab-10.29.0",
    "version": "2.0"
  },
  "bufferViews": [
    {
      "buffer": 0,
      "byteLength": 32832,
      "byteOffset": 0,
      "name": "floatBufferViews",
      "target": 34963
    },
    {
      "buffer": 0,
      "byteLength": 39840,
      "byteOffset": 32832,
      "byteStride": 8,
      "name": "floatBufferViews",
      "target": 34962
    },
    {
      "buffer": 0,
      "byteLength": 39840,
      "byteOffset": 72672,
      "byteStride": 12,
      "name": "floatBufferViews",
      "target": 34962
    },
    {
      "buffer": 0,
      "byteLength": 26560,
      "byteOffset": 112512,
      "byteStride": 16,
      "name": "floatBufferViews",
      "target": 34962
    }
  ],
  "buffers": [
    {
      "byteLength": 139072,
      "uri": "scene.bin"
    }
  ],
  "images": [
    {
      "uri": "textures/Bucket3_baseColor.png"
    },
    {
      "uri": "textures/Bucket3_metallicRoughness.png"
    },
    {
      "uri": "textures/Bucket3_normal.png"
    }
  ],
  "materials": [
    {
      "doubleSided": false,
      "name": "Bucket3",
      "normalTexture": {
        "index": 2,
        "scale": 1,
        "texCoord": 0
      },
      "occlusionTexture": {
        "index": 1,
        "strength": 1,
        "texCoord": 0
      },
      "pbrMetallicRoughness": {
        "baseColorFactor": [
          1,
          1,
          1,
          1
        ],
        "baseColorTexture": {
          "index": 0,
          "texCoord": 0
        },
        "metallicFactor": 1,
        "metallicRoughnessTexture": {
          "index": 1,
          "texCoord": 0
        },
        "roughnessFactor": 1
      }
    }
  ],
  "meshes": [
    {
      "name": "Bucket3_Bucket3_0",
      "primitives": [
        {
          "attributes": {
            "NORMAL": 1,
            "POSITION": 0,
            "TANGENT": 2,
            "TEXCOORD_0": 3,
            "TEXCOORD_1": 4,
            "TEXCOORD_2": 5
          },
          "indices": 6,
          "material": 0,
          "mode": 4
        }
      ]
    }
  ],
  "nodes": [
    {
      "children": [
        1
      ],
      "name": "RootNode (gltf orientation matrix)",
      "rotation": [
        -0.70710678118654746,
        -0,
        -0,
        0.70710678118654757
      ]
    },
    {
      "children": [
        2
      ],
      "name": "RootNode (model correction matrix)"
    },
    {
      "children": [
        3
      ],
      "matrix": [
        1,
        0,
        0,
        0,
        0,
        0,
        1,
        0,
        0,
        -1,
        0,
        0,
        0,
        0,
        0,
        1
      ],
      "name": "c4159e53892541f4961bdc2c87660485.fbx"
    },
    {
      "children": [
        4
      ],
      "name": "RootNode"
    },
    {
      "children": [
        5
      ],
      "matrix": [
        0.025399999693036079,
        0,
        0,
        0,
        0,
        5.6399328969361128e-18,
        -0.025399999693036079,
        0,
        0,
        0.025399999693036079,
        5.6399328969361128e-18,
        0,
        0,
        0,
        0,
        1
      ],
      "name": "Bucket3"
    },
    {
      "mesh": 0,
      "name": "Bucket3_Bucket3_0"
    }
  ],
  "samplers": [
    {
      "magFilter": 9729,
      "minFilter": 9987,
      "wrapS": 10497,
      "wrapT": 10497
    }
  ],
  "scene": 0,
  "scenes": [
    {
      "name": "OSG_Scene",
      "nodes": [
        0
      ]
    }
  ],
  "textures": [
    {
      "sampler": 0,
      "source": 0
    },
    {
      "sampler": 0,
      "source": 1
    },
    {
      "sampler": 0,
      "source": 2
    }
  ]
}

